<svg version="1.1" width="517" height="379" viewBox="-1 -1 517 379" xmlns="http://www.w3.org/2000/svg" xmlns:xlink="http://www.w3.org/1999/xlink">
  <!-- Exported by Scratch - http://scratch.mit.edu/ -->
  <path id="ID0.08463967079296708" fill="#009933" stroke="none" d="M 0 0 L 14 0 L 14 334 L 0 334 L 0 0 Z " transform="matrix(1, 0, 0, 1.1137723922729492, 0, 0)"/>
  <path id="ID0.1284383093006909" fill="#000000" stroke="none" d="M 102 191 L 122 191 L 122 354 L 102 354 L 102 191 Z " transform="matrix(1, 0, 0, 1, 6, 17)"/>
  <path id="ID0.9223907338455319" fill="#009933" stroke="#009933" stroke-width="2" d="M 4 0 L 480 0 L 480 23 L 4 23 L 4 0 Z " transform="matrix(1.0546218156814575, 0, 0, 1, 7.8, 1)"/>
  <path id="ID0.8721448914147913" fill="#000000" stroke="none" d="M 189 117 L 204 117 L 204 354 L 189 354 L 189 117 Z " transform="matrix(1, 0, 0, 1, 6, 17)"/>
  <text id="ID0.8018823652528226" fill="#000000" x="81" y="69.25" text-anchor="start" font-family="Helvetica" font-size="22" transform="matrix(1.1660817861557007, 0, 0, 1.1660817861557007, 41.25, 58.65)">Oof! Good luck. ;)</text>
  <path id="ID0.2261760300025344" fill="#009933" stroke="none" d="M 0 343 L 88 343 L 88 360 L 0 360 L 0 343 Z " transform="matrix(5.545454502105713, 0, 0, 1, 6, 17)"/>
  <path id="ID0.47696193493902683" fill="#009933" stroke="none" d="M 101 147 L 108 147 L 108 360 L 101 360 L 101 147 Z " transform="matrix(4.857142925262451, 0, 0, 1, -416.55, 16)"/>
  <path id="ID0.9908414501696825" fill="#000000" stroke="none" d="M 114 104 L 204 104 L 204 119 L 114 119 L 114 104 Z " transform="matrix(1, 0, 0, 1, 6, 17)"/>
  <path id="ID0.9780046162195504" fill="#000000" stroke="none" d="M 457 141 L 465 141 L 465 235 L 457 235 L 457 141 Z " transform="matrix(3.125, 0, 0, 1, -982.05, 17)"/>
  <path id="ID0.8470474700443447" fill="#009933" stroke="none" d="M 5 83 L 17 83 L 17 90 L 5 90 L 5 83 Z " transform="matrix(1, 0, 0, 1, 6, 34)"/>
  <path id="ID0.6698146783746779" fill="#009933" stroke="none" d="M 39 43 L 419 43 L 419 45 L 39 45 L 39 43 Z " transform="matrix(1, 0, 0, 1, 6, 17)"/>
  <path id="ID0.5247685578651726" fill="#009933" stroke="#009933" stroke-width="2" d="M 462 5 L 479 5 L 479 242 L 462 242 L 462 5 Z " transform="matrix(1, 0, 0, 1, 6, 17)"/>
</svg>