<svg version="1.1" width="517" height="379" viewBox="-1 -1 517 379" xmlns="http://www.w3.org/2000/svg" xmlns:xlink="http://www.w3.org/1999/xlink">
  <!-- Exported by Scratch - http://scratch.mit.edu/ -->
  <path id="ID0.08463967079296708" fill="#009933" stroke="none" d="M 0 0 L 14 0 L 14 334 L 0 334 L 0 0 Z " transform="matrix(1, 0, 0, 1.116766333580017, 0, 0)"/>
  <path id="ID0.2293722927570343" fill="#000000" stroke="none" d="M 105 283 L 152 283 L 152 348 L 105 348 L 105 283 Z " transform="matrix(1, 0, 0, 1, 6, 17)"/>
  <path id="ID0.9223907338455319" fill="#009933" stroke="#009933" stroke-width="2" d="M 4 0 L 480 0 L 480 23 L 4 23 L 4 0 Z " transform="matrix(1.0546218156814575, 0, 0, 1, 7.8, 1)"/>
  <path id="ID0.29792786855250597" fill="#000000" stroke="none" d="M 149 330 L 179 330 L 179 345 L 149 345 L 149 330 Z " transform="matrix(1.1333333253860474, 0, 0, 1, -13.85, 17)"/>
  <path id="ID0.19894990138709545" fill="#000000" stroke="none" d="M 209 329 L 235 329 L 235 349 L 209 349 L 209 329 Z " transform="matrix(1, 0, 0, 1, 18, 17)"/>
  <text id="ID0.8018823652528226" fill="#000000" x="81" y="69.25" text-anchor="start" font-family="Helvetica" font-size="22" transform="matrix(1.1660817861557007, 0, 0, 1.1660817861557007, 127.25, 65.65)">Get it just right...</text>
  <path id="ID0.2261760300025344" fill="#009933" stroke="none" d="M 0 343 L 88 343 L 88 360 L 0 360 L 0 343 Z " transform="matrix(5.545454502105713, 0, 0, 1, 6, 17)"/>
  <path id="ID0.6283768913708627" fill="#009933" stroke="none" d="M 308 188 L 355 188 L 355 344 L 308 344 L 308 188 Z " transform="matrix(1, 0, 0, 1.4358974695205688, 6, -132.9)"/>
  <path id="ID0.46713238675147295" fill="none" stroke="#000000" stroke-width="2" stroke-linecap="round" d="M 367 336 L 367.300 336.300 " transform="matrix(1, 0, 0, 1, 6, 17)"/>
  <path id="ID0.9945164937525988" fill="none" stroke="#000000" stroke-width="2" stroke-linecap="round" d="M 395 332 L 395.300 332.300 " transform="matrix(1, 0, 0, 1, 6, 17)"/>
  <path id="ID0.4272311879321933" fill="none" stroke="#000000" stroke-width="2" stroke-linecap="round" d="M 429 337 L 429.300 337.300 " transform="matrix(1, 0, 0, 1, 6, 17)"/>
  <path id="ID0.6235631969757378" fill="none" stroke="#000000" stroke-width="2" stroke-linecap="round" d="M 456 337 L 456.300 337.300 " transform="matrix(1, 0, 0, 1, 6, 17)"/>
  <path id="ID0.4016335690394044" fill="none" stroke="#000000" stroke-width="2" stroke-linecap="round" d="M 470 337 L 470.300 337.300 " transform="matrix(1, 0, 0, 1, 6, 17)"/>
  <path id="ID0.3621788336895406" fill="none" stroke="#000000" stroke-width="2" stroke-linecap="round" d="M 407 337 L 407.300 337.300 " transform="matrix(1, 0, 0, 1, 6, 17)"/>
  <path id="ID0.7256212085485458" fill="none" stroke="#000000" stroke-width="2" stroke-linecap="round" d="M 391 335 L 391.300 335.300 " transform="matrix(1, 0, 0, 1, 6, 17)"/>
  <path id="ID0.003890498075634241" fill="none" stroke="#000000" stroke-width="2" stroke-linecap="round" d="M 376 335 L 376.300 335.300 " transform="matrix(1, 0, 0, 1, 6, 17)"/>
  <path id="ID0.44925415655598044" fill="none" stroke="#000000" stroke-width="2" stroke-linecap="round" d="M 408 335 L 408.300 335.300 " transform="matrix(1, 0, 0, 1, 6, 17)"/>
  <path id="ID0.7944705882109702" fill="none" stroke="#000000" stroke-width="2" stroke-linecap="round" d="M 424 335 L 424.300 335.300 " transform="matrix(1, 0, 0, 1, 6, 17)"/>
  <path id="ID0.3696993747726083" fill="none" stroke="#000000" stroke-width="2" stroke-linecap="round" d="M 441 335 L 441.300 335.300 " transform="matrix(1, 0, 0, 1, 6, 17)"/>
  <path id="ID0.42174013750627637" fill="none" stroke="#000000" stroke-width="2" stroke-linecap="round" d="M 453 335 L 453.300 335.300 " transform="matrix(1, 0, 0, 1, 6, 17)"/>
  <path id="ID0.11355360876768827" fill="none" stroke="#000000" stroke-width="2" stroke-linecap="round" d="M 465 335 L 465.300 335.300 " transform="matrix(1, 0, 0, 1, 6, 17)"/>
  <path id="ID0.9886556291021407" fill="none" stroke="#000000" stroke-width="2" stroke-linecap="round" d="M 472 335 L 472.300 335.300 " transform="matrix(1, 0, 0, 1, 6, 17)"/>
</svg>