<svg version="1.1" width="517" height="383" viewBox="-1 -1 517 383" xmlns="http://www.w3.org/2000/svg" xmlns:xlink="http://www.w3.org/1999/xlink">
  <!-- Exported by Scratch - http://scratch.mit.edu/ -->
  <path id="ID0.08463967079296708" fill="#009933" stroke="none" d="M 0 0 L 14 0 L 14 334 L 0 334 L 0 0 Z " transform="matrix(1, 0, 0, 1.1137723922729492, 0, 0)"/>
  <path id="ID0.9223907338455319" fill="#009933" stroke="#009933" stroke-width="2" d="M 4 0 L 480 0 L 480 23 L 4 23 L 4 0 Z " transform="matrix(1.0546218156814575, 0, 0, 1, 7.8, 1)"/>
  <path id="ID0.2261760300025344" fill="#009933" stroke="none" d="M 0 343 L 88 343 L 88 360 L 0 360 L 0 343 Z " transform="matrix(5.545454502105713, 0, 0, 1, 6, 17)"/>
  <path id="ID0.5247685578651726" fill="#000000" stroke="#000000" stroke-width="2" d="M 462 5 L 479 5 L 479 242 L 462 242 L 462 5 Z " transform="matrix(1, 0, 0, 1.2004183530807495, 7, 89.45)"/>
  <path id="ID0.7836984926834702" fill="#000000" stroke="none" d="M 158 341 L 462 341 L 462 360 L 158 360 L 158 341 Z " transform="matrix(1, 0, 0, 1, 6, 19)"/>
  <path id="ID0.9701492157764733" fill="#009933" stroke="none" d="M 186 253 C 190.690 253 194.940 254.961 198.018 258.129 C 201.095 261.297 203 265.672 203 270.500 C 203 275.328 201.095 279.703 198.018 282.871 C 194.940 286.039 190.690 288 186 288 C 181.310 288 177.060 286.039 173.982 282.871 C 170.905 279.703 169 275.328 169 270.500 C 169 265.672 170.905 261.297 173.982 258.129 C 177.060 254.961 181.310 253 186 253 Z " transform="matrix(1, 0, 0, 1, 6, 17)"/>
  <path id="ID0.31035362277179956" fill="#009933" stroke="none" d="M 84.500 172 C 87.949 172 91.074 173.513 93.336 175.957 C 95.599 178.400 97 181.775 97 185.500 C 97 189.225 95.599 192.600 93.336 195.043 C 91.074 197.487 87.949 199 84.500 199 C 81.051 199 77.926 197.487 75.664 195.043 C 73.401 192.600 72 189.225 72 185.500 C 72 181.775 73.401 178.400 75.664 175.957 C 77.926 173.513 81.051 172 84.500 172 Z " transform="matrix(1, 0, 0, 1, 6, 17)"/>
  <path id="ID0.900306929834187" fill="#009933" stroke="none" d="M 224 123 C 225.655 123 227.155 123.728 228.242 124.905 C 229.328 126.082 230 127.707 230 129.500 C 230 131.293 229.328 132.918 228.242 134.095 C 227.155 135.272 225.655 136 224 136 C 222.345 136 220.845 135.272 219.758 134.095 C 218.672 132.918 218 131.293 218 129.500 C 218 127.707 218.672 126.082 219.758 124.905 C 220.845 123.728 222.345 123 224 123 Z " transform="matrix(1, 0, 0, 1, 6, 17)"/>
  <path id="ID0.5037200511433184" fill="#009933" stroke="none" d="M 301.500 98 C 303.017 98 304.392 98.672 305.388 99.758 C 306.384 100.845 307 102.345 307 104 C 307 105.655 306.384 107.155 305.388 108.242 C 304.392 109.328 303.017 110 301.500 110 C 299.983 110 298.608 109.328 297.612 108.242 C 296.616 107.155 296 105.655 296 104 C 296 102.345 296.616 100.845 297.612 99.758 C 298.608 98.672 299.983 98 301.500 98 Z " transform="matrix(1, 0, 0, 1, 6, 17)"/>
  <path id="ID0.7018484221771359" fill="#009933" stroke="none" d="M 357 147 C 360.862 147 364.362 147.728 366.897 148.905 C 369.431 150.082 371 151.707 371 153.500 C 371 155.293 369.431 156.918 366.897 158.095 C 364.362 159.272 360.862 160 357 160 C 353.138 160 349.638 159.272 347.103 158.095 C 344.569 156.918 343 155.293 343 153.500 C 343 151.707 344.569 150.082 347.103 148.905 C 349.638 147.728 353.138 147 357 147 Z " transform="matrix(1, 0, 0, 1, 43, 1)"/>
  <text id="ID0.5400646133348346" fill="#000000" x="103" y="42.25" text-anchor="start" font-family="Helvetica" font-size="22" transform="matrix(1, 0, 0, 1, 22, 31.1)">MOON BOUNCE!!</text>
</svg>