<svg version="1.1" width="696" height="474" viewBox="-1 -1 696 474" xmlns="http://www.w3.org/2000/svg" xmlns:xlink="http://www.w3.org/1999/xlink">
  <!-- Exported by Scratch - http://scratch.mit.edu/ -->
  <path id="ID0.7322618165053427" fill="#009933" stroke="none" d="M 0 248 L 480 248 L 480 360 L 0 360 L 0 248 Z " transform="matrix(1.4458333253860474, 0, 0, 1, 0, 112)"/>
  <path id="ID0.12169698160141706" fill="#666666" stroke="none" d="M 239 132 L 240 132 L 240 132 L 239 132 L 239 132 Z " transform="matrix(1, 0, 0, 1, 87.95, 23)"/>
  <path id="ID0.08463967079296708" fill="#009933" stroke="none" d="M 0 0 L 14 0 L 14 334 L 0 334 L 0 0 Z " transform="matrix(1, 0, 0, 1.1137723922729492, 54, 0)"/>
  <path id="ID0.9223907338455319" fill="#009933" stroke="#009933" stroke-width="2" d="M 4 0 L 480 0 L 480 23 L 4 23 L 4 0 Z " transform="matrix(1.0546218156814575, 0, 0, 1, 61.85, 1)"/>
  <text id="ID0.8018823652528226" fill="#000000" x="81" y="69.25" text-anchor="start" font-family="Helvetica" font-size="22" transform="matrix(1.711973786354065, 0, 0, 1.711973786354065, 171, 55.15)">Gah! More acid!</text>
  <path id="ID0.2503470382653177" fill="#000000" stroke="none" d="M 269.500 346 C 293.641 346 315.516 346.784 331.355 348.052 C 347.195 349.319 357 351.069 357 353 C 357 354.931 347.195 356.681 331.355 357.948 C 315.516 359.216 293.641 360 269.500 360 C 245.359 360 223.484 359.216 207.645 357.948 C 191.805 356.681 182 354.931 182 353 C 182 351.069 191.805 349.319 207.645 348.052 C 223.484 346.784 245.359 346 269.500 346 Z " transform="matrix(0.7371428608894348, 0, 0, 1, 27.9, 7)"/>
  <path id="ID0.2503470382653177" fill="#000000" stroke="none" d="M 269.500 346 C 293.641 346 315.516 346.784 331.355 348.052 C 347.195 349.319 357 351.069 357 353 C 357 354.931 347.195 356.681 331.355 357.948 C 315.516 359.216 293.641 360 269.500 360 C 245.359 360 223.484 359.216 207.645 357.948 C 191.805 356.681 182 354.931 182 353 C 182 351.069 191.805 349.319 207.645 348.052 C 223.484 346.784 245.359 346 269.500 346 Z " transform="matrix(0.7142857313156128, 0, 0, 1, 216, 7)"/>
</svg>