<svg version="1.1" width="696" height="474" viewBox="-1 -1 696 474" xmlns="http://www.w3.org/2000/svg" xmlns:xlink="http://www.w3.org/1999/xlink">
  <!-- Exported by Scratch - http://scratch.mit.edu/ -->
  <path id="ID0.7322618165053427" fill="#009933" stroke="none" d="M 0 248 L 480 248 L 480 360 L 0 360 L 0 248 Z " transform="matrix(1.4458333253860474, 0, 0, 1, 0, 112)"/>
  <path id="ID0.12169698160141706" fill="#666666" stroke="none" d="M 239 132 L 240 132 L 240 132 L 239 132 L 239 132 Z " transform="matrix(1, 0, 0, 1, 87.95, 23)"/>
  <path id="ID0.08463967079296708" fill="#009933" stroke="none" d="M 0 0 L 14 0 L 14 334 L 0 334 L 0 0 Z " transform="matrix(1, 0, 0, 1.1137723922729492, 54, 0)"/>
  <path id="ID0.9223907338455319" fill="#009933" stroke="#009933" stroke-width="2" d="M 4 0 L 480 0 L 480 23 L 4 23 L 4 0 Z " transform="matrix(1.0546218156814575, 0, 0, 1, 61.85, 1)"/>
  <text id="ID0.8018823652528226" fill="#000000" x="81" y="69.25" text-anchor="start" font-family="Helvetica" font-size="22" transform="matrix(1.4157299995422363, 0, 0, 1.4157299995422363, 147, 42.25)">Hello! Welcome to</text>
  <text id="ID0.2283954918384552" fill="#000000" x="182" y="107.25" text-anchor="start" font-family="Helvetica" font-size="22" transform="matrix(0.6775895357131958, 0, 0, 0.6775895357131958, 235, 103.1)">By: -BoyMcBoy-</text>
  <text id="ID0.40121947042644024" fill="#000000" x="221" y="68.25" text-anchor="start" font-family="Helvetica" font-size="22" transform="matrix(1.1826140880584717, 0, 0, 1.1826140880584717, 106, 72.15)">Just Your Ordinary Platformer!</text>
</svg>