<svg version="1.1" width="525" height="379" viewBox="-1 -1 525 379" xmlns="http://www.w3.org/2000/svg" xmlns:xlink="http://www.w3.org/1999/xlink">
  <!-- Exported by Scratch - http://scratch.mit.edu/ -->
  <path id="ID0.37845607846975327" fill="#009933" stroke="none" d="M 154 107 L 174 107 L 174 324 L 154 324 L 154 107 Z " transform="matrix(1, 0, 0, 1.2488479614257813, 14, -64.6)"/>
  <path id="ID0.9223907338455319" fill="#009933" stroke="#009933" stroke-width="2" d="M 4 0 L 480 0 L 480 23 L 4 23 L 4 0 Z " transform="matrix(1.0943714380264282, 0, 0, 1, -3.3, 1)"/>
  <text id="ID0.8018823652528226" fill="#000000" x="81" y="69.25" text-anchor="start" font-family="Helvetica" font-size="22" transform="matrix(1.1660817861557007, 0, 0, 1.1660817861557007, 172.25, 67.65)">Yaas Queen</text>
  <path id="ID0.2261760300025344" fill="#009933" stroke="none" d="M 0 343 L 88 343 L 88 360 L 0 360 L 0 343 Z " transform="matrix(1.954545497894287, 0, 0, 1, 14, 17)"/>
  <g id="ID0.437138597946614">
    <path id="ID0.46713238675147295" fill="none" stroke="#000000" stroke-width="2" stroke-linecap="round" d="M 367 336 L 367.300 336.300 " transform="matrix(1, 0, 0, 1, 14, 17)"/>
    <path id="ID0.9945164937525988" fill="none" stroke="#000000" stroke-width="2" stroke-linecap="round" d="M 395 332 L 395.300 332.300 " transform="matrix(1, 0, 0, 1, 14, 17)"/>
    <path id="ID0.4272311879321933" fill="none" stroke="#000000" stroke-width="2" stroke-linecap="round" d="M 429 337 L 429.300 337.300 " transform="matrix(1, 0, 0, 1, 14, 17)"/>
    <path id="ID0.6235631969757378" fill="none" stroke="#000000" stroke-width="2" stroke-linecap="round" d="M 456 337 L 456.300 337.300 " transform="matrix(1, 0, 0, 1, 14, 17)"/>
    <path id="ID0.4016335690394044" fill="none" stroke="#000000" stroke-width="2" stroke-linecap="round" d="M 470 337 L 470.300 337.300 " transform="matrix(1, 0, 0, 1, 14, 17)"/>
    <path id="ID0.3621788336895406" fill="none" stroke="#000000" stroke-width="2" stroke-linecap="round" d="M 407 337 L 407.300 337.300 " transform="matrix(1, 0, 0, 1, 14, 17)"/>
    <path id="ID0.7256212085485458" fill="none" stroke="#000000" stroke-width="2" stroke-linecap="round" d="M 391 335 L 391.300 335.300 " transform="matrix(1, 0, 0, 1, 14, 17)"/>
    <path id="ID0.003890498075634241" fill="none" stroke="#000000" stroke-width="2" stroke-linecap="round" d="M 376 335 L 376.300 335.300 " transform="matrix(1, 0, 0, 1, 14, 17)"/>
    <path id="ID0.44925415655598044" fill="none" stroke="#000000" stroke-width="2" stroke-linecap="round" d="M 408 335 L 408.300 335.300 " transform="matrix(1, 0, 0, 1, 14, 17)"/>
    <path id="ID0.7944705882109702" fill="none" stroke="#000000" stroke-width="2" stroke-linecap="round" d="M 424 335 L 424.300 335.300 " transform="matrix(1, 0, 0, 1, 14, 17)"/>
    <path id="ID0.3696993747726083" fill="none" stroke="#000000" stroke-width="2" stroke-linecap="round" d="M 441 335 L 441.300 335.300 " transform="matrix(1, 0, 0, 1, 14, 17)"/>
    <path id="ID0.42174013750627637" fill="none" stroke="#000000" stroke-width="2" stroke-linecap="round" d="M 453 335 L 453.300 335.300 " transform="matrix(1, 0, 0, 1, 14, 17)"/>
    <path id="ID0.11355360876768827" fill="none" stroke="#000000" stroke-width="2" stroke-linecap="round" d="M 465 335 L 465.300 335.300 " transform="matrix(1, 0, 0, 1, 14, 17)"/>
    <path id="ID0.9886556291021407" fill="none" stroke="#000000" stroke-width="2" stroke-linecap="round" d="M 472 335 L 472.300 335.300 " transform="matrix(1, 0, 0, 1, 14, 17)"/>
  </g>
  <g id="ID0.437138597946614">
    <path id="ID0.46713238675147295" fill="none" stroke="#000000" stroke-width="2" stroke-linecap="round" d="M 367 336 L 367.300 336.300 " transform="matrix(1, 0, 0, 1, -100.35, 18.1)"/>
    <path id="ID0.9945164937525988" fill="none" stroke="#000000" stroke-width="2" stroke-linecap="round" d="M 395 332 L 395.300 332.300 " transform="matrix(1, 0, 0, 1, -100.35, 18.1)"/>
    <path id="ID0.4272311879321933" fill="none" stroke="#000000" stroke-width="2" stroke-linecap="round" d="M 429 337 L 429.300 337.300 " transform="matrix(1, 0, 0, 1, -100.35, 18.1)"/>
    <path id="ID0.6235631969757378" fill="none" stroke="#000000" stroke-width="2" stroke-linecap="round" d="M 456 337 L 456.300 337.300 " transform="matrix(1, 0, 0, 1, -100.35, 18.1)"/>
    <path id="ID0.4016335690394044" fill="none" stroke="#000000" stroke-width="2" stroke-linecap="round" d="M 470 337 L 470.300 337.300 " transform="matrix(1, 0, 0, 1, -100.35, 18.1)"/>
    <path id="ID0.3621788336895406" fill="none" stroke="#000000" stroke-width="2" stroke-linecap="round" d="M 407 337 L 407.300 337.300 " transform="matrix(1, 0, 0, 1, -100.35, 18.1)"/>
    <path id="ID0.7256212085485458" fill="none" stroke="#000000" stroke-width="2" stroke-linecap="round" d="M 391 335 L 391.300 335.300 " transform="matrix(1, 0, 0, 1, -100.35, 18.1)"/>
    <path id="ID0.003890498075634241" fill="none" stroke="#000000" stroke-width="2" stroke-linecap="round" d="M 376 335 L 376.300 335.300 " transform="matrix(1, 0, 0, 1, -100.35, 18.1)"/>
    <path id="ID0.44925415655598044" fill="none" stroke="#000000" stroke-width="2" stroke-linecap="round" d="M 408 335 L 408.300 335.300 " transform="matrix(1, 0, 0, 1, -100.35, 18.1)"/>
    <path id="ID0.7944705882109702" fill="none" stroke="#000000" stroke-width="2" stroke-linecap="round" d="M 424 335 L 424.300 335.300 " transform="matrix(1, 0, 0, 1, -100.35, 18.1)"/>
    <path id="ID0.3696993747726083" fill="none" stroke="#000000" stroke-width="2" stroke-linecap="round" d="M 441 335 L 441.300 335.300 " transform="matrix(1, 0, 0, 1, -100.35, 18.1)"/>
    <path id="ID0.42174013750627637" fill="none" stroke="#000000" stroke-width="2" stroke-linecap="round" d="M 453 335 L 453.300 335.300 " transform="matrix(1, 0, 0, 1, -100.35, 18.1)"/>
    <path id="ID0.11355360876768827" fill="none" stroke="#000000" stroke-width="2" stroke-linecap="round" d="M 465 335 L 465.300 335.300 " transform="matrix(1, 0, 0, 1, -100.35, 18.1)"/>
    <path id="ID0.9886556291021407" fill="none" stroke="#000000" stroke-width="2" stroke-linecap="round" d="M 472 335 L 472.300 335.300 " transform="matrix(1, 0, 0, 1, -100.35, 18.1)"/>
  </g>
  <path id="ID0.46713238675147295" fill="none" stroke="#000000" stroke-width="2" stroke-linecap="round" d="M 367 336 L 367.300 336.300 " transform="matrix(1, 0, 0, 1, -214.35, 16.65)"/>
  <path id="ID0.6235631969757378" fill="none" stroke="#000000" stroke-width="2" stroke-linecap="round" d="M 456 337 L 456.300 337.300 " transform="matrix(1, 0, 0, 1, -214.35, 16.65)"/>
  <path id="ID0.4016335690394044" fill="none" stroke="#000000" stroke-width="2" stroke-linecap="round" d="M 470 337 L 470.300 337.300 " transform="matrix(1, 0, 0, 1, -214.35, 16.65)"/>
  <path id="ID0.7256212085485458" fill="none" stroke="#000000" stroke-width="2" stroke-linecap="round" d="M 391 335 L 391.300 335.300 " transform="matrix(1, 0, 0, 1, -214.35, 16.65)"/>
  <path id="ID0.003890498075634241" fill="none" stroke="#000000" stroke-width="2" stroke-linecap="round" d="M 376 335 L 376.300 335.300 " transform="matrix(1, 0, 0, 1, -214.35, 16.65)"/>
  <path id="ID0.3696993747726083" fill="none" stroke="#000000" stroke-width="2" stroke-linecap="round" d="M 441 335 L 441.300 335.300 " transform="matrix(1, 0, 0, 1, -214.35, 16.65)"/>
  <path id="ID0.42174013750627637" fill="none" stroke="#000000" stroke-width="2" stroke-linecap="round" d="M 453 335 L 453.300 335.300 " transform="matrix(1, 0, 0, 1, -214.35, 16.65)"/>
  <path id="ID0.11355360876768827" fill="none" stroke="#000000" stroke-width="2" stroke-linecap="round" d="M 465 335 L 465.300 335.300 " transform="matrix(1, 0, 0, 1, -214.35, 16.65)"/>
  <path id="ID0.9886556291021407" fill="none" stroke="#000000" stroke-width="2" stroke-linecap="round" d="M 472 335 L 472.300 335.300 " transform="matrix(1, 0, 0, 1, -214.35, 16.65)"/>
  <g id="ID0.437138597946614">
    <path id="ID0.46713238675147295" fill="none" stroke="#000000" stroke-width="2" stroke-linecap="round" d="M 367 336 L 367.300 336.300 " transform="matrix(1, 0, 0, 1, -328.15, 16.9)"/>
    <path id="ID0.9945164937525988" fill="none" stroke="#000000" stroke-width="2" stroke-linecap="round" d="M 395 332 L 395.300 332.300 " transform="matrix(1, 0, 0, 1, -328.15, 16.9)"/>
    <path id="ID0.4272311879321933" fill="none" stroke="#000000" stroke-width="2" stroke-linecap="round" d="M 429 337 L 429.300 337.300 " transform="matrix(1, 0, 0, 1, -328.15, 16.9)"/>
    <path id="ID0.6235631969757378" fill="none" stroke="#000000" stroke-width="2" stroke-linecap="round" d="M 456 337 L 456.300 337.300 " transform="matrix(1, 0, 0, 1, -328.15, 16.9)"/>
    <path id="ID0.4016335690394044" fill="none" stroke="#000000" stroke-width="2" stroke-linecap="round" d="M 470 337 L 470.300 337.300 " transform="matrix(1, 0, 0, 1, -328.15, 16.9)"/>
    <path id="ID0.3621788336895406" fill="none" stroke="#000000" stroke-width="2" stroke-linecap="round" d="M 407 337 L 407.300 337.300 " transform="matrix(1, 0, 0, 1, -328.15, 16.9)"/>
    <path id="ID0.7256212085485458" fill="none" stroke="#000000" stroke-width="2" stroke-linecap="round" d="M 391 335 L 391.300 335.300 " transform="matrix(1, 0, 0, 1, -328.15, 16.9)"/>
    <path id="ID0.003890498075634241" fill="none" stroke="#000000" stroke-width="2" stroke-linecap="round" d="M 376 335 L 376.300 335.300 " transform="matrix(1, 0, 0, 1, -328.15, 16.9)"/>
    <path id="ID0.44925415655598044" fill="none" stroke="#000000" stroke-width="2" stroke-linecap="round" d="M 408 335 L 408.300 335.300 " transform="matrix(1, 0, 0, 1, -328.15, 16.9)"/>
    <path id="ID0.7944705882109702" fill="none" stroke="#000000" stroke-width="2" stroke-linecap="round" d="M 424 335 L 424.300 335.300 " transform="matrix(1, 0, 0, 1, -328.15, 16.9)"/>
    <path id="ID0.3696993747726083" fill="none" stroke="#000000" stroke-width="2" stroke-linecap="round" d="M 441 335 L 441.300 335.300 " transform="matrix(1, 0, 0, 1, -328.15, 16.9)"/>
    <path id="ID0.42174013750627637" fill="none" stroke="#000000" stroke-width="2" stroke-linecap="round" d="M 453 335 L 453.300 335.300 " transform="matrix(1, 0, 0, 1, -328.15, 16.9)"/>
    <path id="ID0.11355360876768827" fill="none" stroke="#000000" stroke-width="2" stroke-linecap="round" d="M 465 335 L 465.300 335.300 " transform="matrix(1, 0, 0, 1, -328.15, 16.9)"/>
    <path id="ID0.9886556291021407" fill="none" stroke="#000000" stroke-width="2" stroke-linecap="round" d="M 472 335 L 472.300 335.300 " transform="matrix(1, 0, 0, 1, -328.15, 16.9)"/>
  </g>
  <path id="ID0.21404432319104671" fill="#009933" stroke="none" d="M 14 323 L 64 323 L 64 332 L 14 332 L 14 323 Z " transform="matrix(1, 0, 0, 1, 14, 17)"/>
  <path id="ID0.611988419201225" fill="#009933" stroke="none" d="M 91 255 L 141 255 L 141 264 L 91 264 L 91 255 Z " transform="matrix(1, 0, 0, 1, 14, 17)"/>
  <path id="ID0.16694498993456364" fill="#009933" stroke="none" d="M 1 191 L 36 191 L 36 201 L 1 201 L 1 191 Z " transform="matrix(1, 0, 0, 1, 14, 17)"/>
  <path id="ID0.08463967079296708" fill="#000000" stroke="none" d="M 0 0 L 14 0 L 14 334 L 0 334 L 0 0 Z " transform="matrix(1, 0, 0, 1.116766333580017, 8, 0)"/>
  <path id="ID0.2042857245542109" fill="#009933" stroke="none" d="M 59 1 L 78 1 L 78 187 L 59 187 L 59 1 Z " transform="matrix(1, 0, 0, 0.7849462628364563, 14, 57.2)"/>
  <path id="ID0.8179551591165364" fill="#009933" stroke="none" d="M 76 41 L 323 41 L 323 53 L 76 53 L 76 41 Z " transform="matrix(1, 0, 0, 1, 14, 17)"/>
  <path id="ID0.8468113937415183" fill="#009933" stroke="none" d="M 368 3 L 381 3 L 381 299 L 368 299 L 368 3 Z " transform="matrix(1, 0, 0, 1, 14, 17)"/>
  <path id="ID0.0408151769079268" fill="#009933" stroke="none" d="M 165 265 L 202 265 L 202 282 L 165 282 L 165 265 Z " transform="matrix(1.7837839126586914, 0, 0, 1, -81.2, 19)"/>
  <path id="ID0.14378168247640133" fill="#009933" stroke="none" d="M 0 266 L 8 266 L 8 360 L 0 360 L 0 266 Z " transform="matrix(1, 0, 0, 1, 14, 17)"/>
  <path id="ID0.2261760300025344" fill="#009933" stroke="none" d="M 0 343 L 88 343 L 88 360 L 0 360 L 0 343 Z " transform="matrix(3.340909242630005, 0, 0, 1, 224, 17)"/>
</svg>