<svg version="1.1" width="517" height="379" viewBox="-1 -1 517 379" xmlns="http://www.w3.org/2000/svg" xmlns:xlink="http://www.w3.org/1999/xlink">
  <!-- Exported by Scratch - http://scratch.mit.edu/ -->
  <path id="ID0.08463967079296708" fill="#009933" stroke="none" d="M 0 0 L 14 0 L 14 334 L 0 334 L 0 0 Z " transform="matrix(1, 0, 0, 1.1137723922729492, 0, 0)"/>
  <path id="ID0.9223907338455319" fill="#009933" stroke="#009933" stroke-width="2" d="M 4 0 L 480 0 L 480 23 L 4 23 L 4 0 Z " transform="matrix(1.0546218156814575, 0, 0, 1, 7.8, 1)"/>
  <path id="ID0.2261760300025344" fill="#009933" stroke="none" d="M 0 343 L 88 343 L 88 360 L 0 360 L 0 343 Z " transform="matrix(5.545454502105713, 0, 0, 1, 6, 17)"/>
  <text id="ID0.5400646133348346" fill="#000000" x="103" y="42.25" text-anchor="start" font-family="Helvetica" font-size="22" transform="matrix(1, 0, 0, 1, 307, 214.1)">MAZE!!</text>
  <path id="ID0.9180508884601295" fill="#009933" stroke="none" d="M 471 58 L 480 58 L 480 360 L 471 360 L 471 58 Z " transform="matrix(1, 0, 0, 1, 6, 17)"/>
  <path id="ID0.7995963450521231" fill="#009933" stroke="none" d="M 4 299.500 L 35.500 299.500 L 35.500 303.500 L 4 303.500 L 4 299.500 Z " transform="matrix(1, 0, 0, 1, 8, 34.5)"/>
  <path id="ID0.7995963450521231" fill="#009933" stroke="none" d="M 4 299.500 L 35.500 299.500 L 35.500 303.500 L 4 303.500 L 4 299.500 Z " transform="matrix(0.015620947815477848, 0.9998779296875, -0.9998779296875, 0.015620947815477848, 368.75, 322.45)"/>
  <path id="ID0.7995963450521231" fill="#009933" stroke="none" d="M 4 299.500 L 35.500 299.500 L 35.500 303.500 L 4 303.500 L 4 299.500 Z " transform="matrix(1.841269850730896, 0, 0, 1, 31.55, 4)"/>
  <path id="ID0.9673629463650286" fill="#009933" stroke="none" d="M 87 287 L 91 287 L 91 327 L 87 327 L 87 287 Z " transform="matrix(1, 0, 0, 1, 6, 17)"/>
  <path id="ID0.43685510847717524" fill="#009933" stroke="none" d="M 88 322 L 125.500 322 L 125.500 326 L 88 326 L 88 322 Z " transform="matrix(1, 0, 0, 1, 6, 18)"/>
  <path id="ID0.7269616182893515" fill="#009933" stroke="none" d="M 148 260 L 152.500 260 L 152.500 342.500 L 148 342.500 L 148 260 Z " transform="matrix(1, 0, 0, 1, 6, 18.5)"/>
  <path id="ID0.5719260438345373" fill="#009933" stroke="none" d="M 120.500 291 L 149.500 291 L 149.500 294.500 L 120.500 294.500 L 120.500 291 Z " transform="matrix(1, 0, 0, 1, 6, 17)"/>
  <path id="ID0.893396177329123" fill="#009933" stroke="none" d="M 111.500 237 L 116.500 237 L 116.500 271 L 111.500 271 L 111.500 237 Z " transform="matrix(1, 0, 0, 1, 7.5, 14)"/>
  <path id="ID0.6528743472881615" fill="#009933" stroke="none" d="M 113.500 233 L 154 233 L 154 238 L 113.500 238 L 113.500 233 Z " transform="matrix(1, 0, 0, 1, 5.5, 17)"/>
  <path id="ID0.9864821815863252" fill="#009933" stroke="none" d="M 182.500 232.500 L 186 232.500 L 186 344 L 182.500 344 L 182.500 232.500 Z " transform="matrix(1.1428571939468384, 0, 0, 1.4663677215576172, -18.55, -144.4)"/>
  <path id="ID0.7391340211033821" fill="#009933" stroke="none" d="M 34 214.500 L 39 214.500 L 39 287.500 L 34 287.500 L 34 214.500 Z " transform="matrix(1, 0, 0, 1, 5, 17)"/>
  <path id="ID0.5866330871358514" fill="#009933" stroke="none" d="M 39 58 L 471 58 L 471 77 L 39 77 L 39 58 Z " transform="matrix(1, 0, 0, 1, 6, 17)"/>
  <path id="ID0.7708206288516521" fill="#009933" stroke="none" d="M 8 104 L 71 104 L 71 109 L 8 109 L 8 104 Z " transform="matrix(1, 0, 0, 1, 6, 17)"/>
  <path id="ID0.07231736415997148" fill="#009933" stroke="none" d="M 100 79 L 105 79 L 105 143 L 100 143 L 100 79 Z " transform="matrix(1, 0, 0, 1, 6, 14)"/>
  <path id="ID0.3810032126493752" fill="#009933" stroke="none" d="M 35 141 L 104 141 L 104 147 L 35 147 L 35 141 Z " transform="matrix(1, 0, 0, 1, 7, 14)"/>
  <path id="ID0.3001250005327165" fill="#009933" stroke="none" d="M 5 167 L 145 167 L 145 172 L 5 172 L 5 167 Z " transform="matrix(1, 0, 0, 1, 6, 17)"/>
  <path id="ID0.05624435842037201" fill="#009933" stroke="none" d="M 139 103 L 145 103 L 145 169 L 139 169 L 139 103 Z " transform="matrix(1, 0, 0, 1, 6, 17)"/>
  <path id="ID0.10066774021834135" fill="#009933" stroke="none" d="M 243 97 L 245 97 L 245 97 L 243 97 L 243 97 Z " transform="matrix(1, 0, 0, 1, 6, 17)"/>
  <path id="ID0.8126126523129642" fill="#009933" stroke="none" d="M 144 118 L 197 118 L 197 123 L 144 123 L 144 118 Z " transform="matrix(1, 0, 0, 1, 6, 17)"/>
  <path id="ID0.8949723499827087" fill="#009933" stroke="none" d="M 171 77 L 176 77 L 176 96 L 171 96 L 171 77 Z " transform="matrix(1, 0, 0, 1, 6, 17)"/>
  <path id="ID0.7797127300873399" fill="#009933" stroke="none" d="M 233 80 L 241 80 L 241 140 L 233 140 L 233 80 Z " transform="matrix(1, 0, 0, 0.800000011920929, 6, 28.6)"/>
  <path id="ID0.33232732908800244" fill="#009933" stroke="none" d="M 139 151 L 224 151 L 224 156 L 139 156 L 139 151 Z " transform="matrix(2.4352941513061523, 0, 0, 1, -193.5, 17)"/>
  <path id="ID0.4458637163043022" fill="#009933" stroke="none" d="M 4 191 L 135 191 L 135 195 L 4 195 L 4 191 Z " transform="matrix(1.1641221046447754, 0, 0, 1, 5.35, 17)"/>
  <path id="ID0.4938857783563435" fill="#009933" stroke="none" d="M 85 190 L 91 190 L 91 258 L 85 258 L 85 190 Z " transform="matrix(1, 0, 0, 1, -2, 18)"/>
  <path id="ID0.7935987366363406" fill="#009933" stroke="none" d="M 234 123 L 312 123 L 312 130 L 234 130 L 234 123 Z " transform="matrix(1, 0, 0, 1, 5, 17)"/>
  <path id="ID0.25378544302657247" fill="#009933" stroke="none" d="M 339 106 L 345 106 L 345 152 L 339 152 L 339 106 Z " transform="matrix(1, 0, 0, 1, 7, 17)"/>
  <path id="ID0.690353399142623" fill="#009933" stroke="none" d="M 267 94 L 316 94 L 316 99 L 267 99 L 267 94 Z " transform="matrix(1, 0, 0, 1, 6, 21)"/>
  <path id="ID0.18522727536037564" fill="#009933" stroke="none" d="M 379 79 L 387 79 L 387 190 L 379 190 L 379 79 Z " transform="matrix(1, 0, 0, 1, 6, 17)"/>
  <path id="ID0.7574154757894576" fill="#009933" stroke="none" d="M 257 187 L 308 187 L 308 191 L 257 191 L 257 187 Z " transform="matrix(1, 0, 0, 1, 6, 17)"/>
  <path id="ID0.084963149856776" fill="#009933" stroke="none" d="M 329 187 L 348 187 L 348 191 L 329 191 L 329 187 Z " transform="matrix(1, 0, 0, 1, 41, 16)"/>
  <path id="ID0.1375857968814671" fill="#009933" stroke="none" d="M 225 156 L 230 156 L 230 271 L 225 271 L 225 156 Z " transform="matrix(1, 0, 0, 1, 6, 17)"/>
  <path id="ID0.41348858876153827" fill="#009933" stroke="none" d="M 228 303 L 322 303 L 322 308 L 228 308 L 228 303 Z " transform="matrix(1, 0, 0, 1, 6, 17)"/>
  <path id="ID0.24315579794347286" fill="#009933" stroke="none" d="M 356 268 L 362 268 L 362 344 L 356 344 L 356 268 Z " transform="matrix(1, 0, 0, 1, 6, 17)"/>
  <path id="ID0.025900216307491064" fill="#009933" stroke="none" d="M 313 254 L 381 254 L 381 259 L 313 259 L 313 254 Z " transform="matrix(1, 0, 0, 1, 9, 2)"/>
  <path id="ID0.2745675127953291" fill="#009933" stroke="none" d="M 311 240 L 317 240 L 317 304 L 311 304 L 311 240 Z " transform="matrix(1, 0, 0, 1, 11, 20)"/>
  <path id="ID0.013362962286919355" fill="#009933" stroke="none" d="M 276 191 L 282 191 L 282 303 L 276 303 L 276 191 Z " transform="matrix(1, 0, 0, 1, 6, 17)"/>
  <path id="ID0.8513781889341772" fill="#009933" stroke="none" d="M 361 287 L 422 287 L 422 291 L 361 291 L 361 287 Z " transform="matrix(1, 0, 0, 1, 6, 17)"/>
  <path id="ID0.46225763438269496" fill="#009933" stroke="none" d="M 424 239 L 473 239 L 473 244 L 424 244 L 424 239 Z " transform="matrix(1, 0, 0, 1, 6, 17)"/>
  <path id="ID0.9114919202402234" fill="#009933" stroke="none" d="M 385 139 L 428 139 L 428 145 L 385 145 L 385 139 Z " transform="matrix(1, 0, 0, 1, 6, 17)"/>
  <path id="ID0.8192199212498963" fill="#009933" stroke="none" d="M 415 143 L 422 143 L 422 209 L 415 209 L 415 143 Z " transform="matrix(1, 0, 0, 1, 6, 17)"/>
  <path id="ID0.12863333197310567" fill="#009933" stroke="none" d="M 419 193 L 455 193 L 455 200 L 419 200 L 419 193 Z " transform="matrix(1, 0, 0, 1, 6, 17)"/>
</svg>