<svg version="1.1" width="696" height="474" viewBox="-1 -1 696 474" xmlns="http://www.w3.org/2000/svg" xmlns:xlink="http://www.w3.org/1999/xlink">
  <!-- Exported by Scratch - http://scratch.mit.edu/ -->
  <path id="ID0.7322618165053427" fill="#000000" stroke="none" d="M 0 248 L 480 248 L 480 360 L 0 360 L 0 248 Z " transform="matrix(1.4458333253860474, 0, 0, 1, 0, 112)"/>
  <path id="ID0.12169698160141706" fill="#666666" stroke="none" d="M 239 132 L 240 132 L 240 132 L 239 132 L 239 132 Z " transform="matrix(1, 0, 0, 1, 87.95, 23)"/>
  <path id="ID0.08463967079296708" fill="#009933" stroke="none" d="M 0 0 L 14 0 L 14 334 L 0 334 L 0 0 Z " transform="matrix(1, 0, 0, 1.1616765260696411, 54, 0)"/>
  <path id="ID0.9223907338455319" fill="#009933" stroke="#009933" stroke-width="2" d="M 4 0 L 480 0 L 480 23 L 4 23 L 4 0 Z " transform="matrix(1.0546218156814575, 0, 0, 1, 61.85, 1)"/>
  <text id="ID0.8018823652528226" fill="#000000" x="81" y="69.25" text-anchor="start" font-family="Helvetica" font-size="22" transform="matrix(1.1660817861557007, 0, 0, 1.1660817861557007, 94.25, 103.6)">Why did I tell you then, you ask?</text>
  <path id="ID0.456805651076138" fill="#009933" stroke="none" d="M 460 0 L 480 0 L 480 178 L 460 178 L 460 0 Z " transform="matrix(1, 0, 0, 1.4382022619247437, 63, 4)"/>
  <path id="ID0.021960461977869272" fill="#009933" stroke="none" d="M 458 255 L 480 255 L 480 358 L 458 358 L 458 255 Z " transform="matrix(1, 0, 0, 0.24271845817565918, 60, 295.1)"/>
  <path id="ID0.2261760300025344" fill="#009933" stroke="none" d="M 0 343 L 88 343 L 88 360 L 0 360 L 0 343 Z " transform="matrix(1, 0, 0, 1, 60, 17)"/>
  <path id="ID0.897517186589539" fill="#009933" stroke="none" d="M 113 219 L 119 219 L 119 303 L 113 303 L 113 219 Z " transform="matrix(1, 0, 0, 1, 60, 17)"/>
  <path id="ID0.3946131858974695" fill="#009933" stroke="none" d="M 222 240 L 228 240 L 228 340 L 222 340 L 222 240 Z " transform="matrix(1, 0, 0, 1, 60, 17)"/>
  <path id="ID0.30305163841694593" fill="#009933" stroke="none" d="M 323 151 L 330 151 L 330 343 L 323 343 L 323 151 Z " transform="matrix(1, 0, 0, 1, 60, 17)"/>
</svg>