<svg version="1.1" width="517" height="379" viewBox="-1 -1 517 379" xmlns="http://www.w3.org/2000/svg" xmlns:xlink="http://www.w3.org/1999/xlink">
  <!-- Exported by Scratch - http://scratch.mit.edu/ -->
  <path id="ID0.08463967079296708" fill="#009933" stroke="none" d="M 0 0 L 14 0 L 14 334 L 0 334 L 0 0 Z " transform="matrix(1, 0, 0, 1.1137723922729492, 0, 0)"/>
  <path id="ID0.8520068298093975" fill="#000000" stroke="none" d="M 115 288 L 142 288 L 142 349 L 115 349 L 115 288 Z " transform="matrix(1, 0, 0, 1, 6, 17)"/>
  <path id="ID0.9223907338455319" fill="#009933" stroke="#009933" stroke-width="2" d="M 4 0 L 480 0 L 480 23 L 4 23 L 4 0 Z " transform="matrix(1.0546218156814575, 0, 0, 1, 7.8, 1)"/>
  <path id="ID0.6704634600318968" fill="#009933" stroke="none" d="M 243 21 L 335 21 L 335 32 L 243 32 L 243 21 Z " transform="matrix(1, 0, 0, 1, 6, 24)"/>
  <path id="ID0.2261760300025344" fill="#009933" stroke="none" d="M 0 343 L 88 343 L 88 360 L 0 360 L 0 343 Z " transform="matrix(5.545454502105713, 0, 0, 1, 6, 17)"/>
  <path id="ID0.9180508884601295" fill="#009933" stroke="none" d="M 471 58 L 480 58 L 480 360 L 471 360 L 471 58 Z " transform="matrix(1, 0, 0, 1.2119204998016357, 6, -59.25)"/>
  <text id="ID0.5347304632887244" fill="#000000" x="146" y="68.25" text-anchor="start" font-family="Helvetica" font-size="22" transform="matrix(1.8597443103790283, 0, 0, 1.8597443103790283, 124, 35.25)">THAT'S IT!!</text>
  <text id="ID0.34323082212358713" fill="#000000" x="126" y="109.25" text-anchor="start" font-family="Helvetica" font-size="22" transform="matrix(1, 0, 0, 1, 132, 85.15)">Thanks for playing!</text>
  <text id="ID0.7905694525688887" fill="#000000" x="154" y="147.25" text-anchor="start" font-family="Helvetica" font-size="22" transform="matrix(0.50398188829422, 0, 0, 0.50398188829422, 203, 117)">@-BoyMcBoy-</text>
  <path id="ID0.20295513654127717" fill="#009933" stroke="none" d="M 222 199 L 380 199 L 380 249 L 222 249 L 222 199 Z " transform="matrix(1, 0, 0, 1, 6, 39)"/>
  <path id="ID0.5424136221408844" fill="#009933" stroke="none" d="M 31 143 L 57 143 L 57 208 L 31 208 L 31 143 Z " transform="matrix(1, 0, 0, 1, 6, 17)"/>
  <path id="ID0.2659033574163914" fill="#009933" stroke="none" d="M 161 221 L 161 221 L 161 222 L 161 222 L 161 221 Z " transform="matrix(1, 0, 0, 1, 6, 17)"/>
  <path id="ID0.8004744476638734" fill="#009933" stroke="none" d="M 403 83 L 421 83 L 421 154 L 403 154 L 403 83 Z " transform="matrix(1, 0, 0, 1, 6, 17)"/>
</svg>