<?xml version="1.0" encoding="iso-8859-1"?>
<!-- Generator: Adobe Illustrator 19.0.0, SVG Export Plug-In . SVG Version: 6.00 Build 0)  -->
<svg version="1.1" id="Capa_1" xmlns="http://www.w3.org/2000/svg" xmlns:xlink="http://www.w3.org/1999/xlink" x="0px" y="0px"
	 viewBox="0 0 512 512" style="enable-background:new 0 0 512 512;" xml:space="preserve">
<path style="fill:#098287;" d="M269.861,22.398L256,10.625l-13.861,11.773c-25.175,21.383-45.736,47.074-61.001,75.515h149.723
	C315.597,69.472,295.035,43.781,269.861,22.398z"/>
<path style="fill:#2DA0A4;" d="M330.861,97.914H181.139c-10.969,20.438-19.208,42.295-24.432,65.007
	c-4.378,19.03-6.664,38.652-6.664,58.541v238.711h211.915V221.461c0-19.888-2.286-39.51-6.664-58.541
	C350.069,140.208,341.83,118.352,330.861,97.914z"/>
<path d="M181.42,301.98c-0.65,0-1.311-0.07-1.95-0.2s-1.27-0.32-1.87-0.57c-0.609-0.25-1.189-0.56-1.729-0.92
	c-0.551-0.36-1.061-0.78-1.521-1.24s-0.88-0.97-1.24-1.52c-0.359-0.54-0.67-1.12-0.92-1.73c-0.25-0.6-0.439-1.23-0.569-1.87
	c-0.13-0.64-0.2-1.3-0.2-1.95c0-0.65,0.07-1.31,0.2-1.95s0.319-1.27,0.569-1.88c0.25-0.6,0.561-1.18,0.92-1.72
	c0.36-0.55,0.78-1.06,1.24-1.52s0.97-0.88,1.521-1.25c0.54-0.36,1.12-0.66,1.729-0.91c0.601-0.25,1.23-0.45,1.87-0.57
	c1.29-0.26,2.62-0.26,3.91,0c0.63,0.12,1.26,0.32,1.87,0.57c0.6,0.25,1.18,0.55,1.72,0.91c0.55,0.37,1.061,0.79,1.521,1.25
	s0.88,0.97,1.25,1.52c0.359,0.54,0.659,1.12,0.909,1.72c0.25,0.61,0.45,1.24,0.58,1.88s0.19,1.3,0.19,1.95
	c0,0.65-0.061,1.31-0.19,1.95c-0.13,0.64-0.33,1.27-0.58,1.87c-0.25,0.61-0.55,1.19-0.909,1.73c-0.37,0.55-0.79,1.06-1.25,1.52
	s-0.971,0.88-1.521,1.24c-0.54,0.36-1.12,0.67-1.72,0.92c-0.61,0.25-1.24,0.44-1.87,0.57
	C182.729,301.91,182.069,301.98,181.42,301.98z"/>
<path d="M330.58,301.98c-2.63,0-5.21-1.07-7.07-2.93c-0.46-0.46-0.88-0.97-1.25-1.52c-0.36-0.54-0.67-1.12-0.92-1.73
	c-0.25-0.6-0.44-1.23-0.57-1.87c-0.13-0.64-0.189-1.3-0.189-1.95c0-0.65,0.06-1.31,0.189-1.96c0.13-0.63,0.32-1.26,0.57-1.87
	c0.25-0.6,0.56-1.18,0.92-1.72c0.37-0.55,0.79-1.06,1.25-1.52s0.97-0.88,1.521-1.24c0.539-0.37,1.119-0.67,1.72-0.92
	c0.609-0.25,1.24-0.45,1.87-0.58c1.29-0.26,2.62-0.26,3.91,0c0.64,0.13,1.27,0.33,1.869,0.58c0.61,0.25,1.19,0.55,1.73,0.92
	c0.55,0.36,1.06,0.78,1.52,1.24s0.881,0.97,1.24,1.52c0.36,0.54,0.67,1.12,0.92,1.72c0.25,0.61,0.44,1.24,0.57,1.87
	c0.13,0.65,0.2,1.31,0.2,1.96s-0.07,1.31-0.2,1.95s-0.32,1.27-0.57,1.87c-0.25,0.61-0.56,1.19-0.92,1.73
	c-0.359,0.55-0.78,1.06-1.24,1.52C335.79,300.91,333.21,301.98,330.58,301.98z"/>
<rect x="189.85" y="137.92" style="fill:#DBDBDB;" width="132.29" height="42.836"/>
<path d="M322.147,190.756H189.853c-5.522,0-10-4.477-10-10V137.92c0-5.523,4.478-10,10-10h132.295c5.522,0,10,4.477,10,10v42.835
	C332.147,186.279,327.67,190.756,322.147,190.756z M199.853,170.756h112.295V147.92H199.853V170.756z"/>
<rect x="189.85" y="213.57" style="fill:#DBDBDB;" width="132.29" height="42.836"/>
<path d="M322.147,266.404H189.853c-5.522,0-10-4.477-10-10v-42.836c0-5.523,4.478-10,10-10h132.295c5.522,0,10,4.477,10,10v42.836
	C332.147,261.927,327.67,266.404,322.147,266.404z M199.853,246.404h112.295v-22.836H199.853V246.404z"/>
<rect x="10" y="437.71" style="fill:#FDCC99;" width="97.41" height="37.88"/>
<path style="fill:#DBDBDB;" d="M107.414,391.59c0-35.236-15.479-68.694-42.335-91.505l-6.372-5.412l-6.371,5.412
	C25.479,322.896,10,356.353,10,391.59v46.118h97.414V391.59z"/>
<rect x="404.59" y="437.71" style="fill:#FDCC99;" width="97.41" height="37.88"/>
<path style="fill:#DBDBDB;" d="M502,391.59c0-35.236-15.479-68.694-42.335-91.505l-6.372-5.412l-6.371,5.412
	c-26.856,22.811-42.335,56.269-42.335,91.505v46.118H502V391.59z"/>
<g>
	<path style="fill:#B3BBC2;" d="M106.447,376.374c0.64,5.015,0.967,10.099,0.967,15.216v46.118v22.463h42.629V344.712
		L106.447,376.374z"/>
	<path style="fill:#B3BBC2;" d="M404.586,437.708V391.59c0-5.117,0.327-10.201,0.967-15.215l-43.596-31.662v115.459h42.629V437.708z
		"/>
</g>
<rect x="207.29" y="460.17" style="fill:#FDCC99;" width="97.41" height="41.2"/>
<path style="fill:#DBDBDB;" d="M304.707,417.376c0-35.236-15.479-68.694-42.335-91.505L256,320.459l-6.371,5.412
	c-26.856,22.811-42.335,56.269-42.335,91.505v42.795h97.414v-42.795H304.707z"/>
<path d="M466.139,292.462l-6.372-5.412c-3.734-3.171-9.214-3.17-12.948,0l-6.37,5.412c-20.686,17.57-35.101,40.871-41.732,66.587
	l-26.759-19.434V221.461c0-20.379-2.327-40.83-6.918-60.783c-5.403-23.489-13.938-46.196-25.365-67.49
	c-0.001-0.001-0.001-0.003-0.002-0.004c-16.107-30.011-37.417-56.391-63.339-78.408l-13.86-11.773
	c-3.732-3.171-9.215-3.171-12.947,0l-13.86,11.773c-25.922,22.017-47.231,48.397-63.339,78.408
	c-0.001,0.001-0.001,0.003-0.002,0.004c-11.427,21.294-19.961,44.001-25.365,67.49c-4.591,19.953-6.918,40.403-6.918,60.783v118.155
	l-26.759,19.434c-6.631-25.716-21.046-49.017-41.731-66.586l-6.371-5.413c-3.734-3.171-9.216-3.17-12.948,0l-6.372,5.413
	C16.716,317.219,0,353.349,0,391.59v46.119v37.88c0,5.523,4.478,10,10,10h38.707v4.003c0,5.523,4.478,10,10,10s10-4.477,10-10
	v-4.003h38.707c5.522,0,10-4.477,10-10v-5.417h32.629h47.25v31.204c0,5.523,4.478,10,10,10h97.414c5.522,0,10-4.477,10-10v-31.204
	h47.25h32.629v5.417c0,5.523,4.478,10,10,10h38.707v4.003c0,5.523,4.478,10,10,10s10-4.477,10-10v-4.003H502c5.522,0,10-4.477,10-10
	v-37.88V391.59C512,353.349,495.284,317.219,466.139,292.462z M48.707,465.588H20v-17.88h28.707V465.588z M97.414,460.171v5.417
	H68.707v-17.88h28.707V460.171z M97.414,427.708H68.707v-48.065c0-5.523-4.478-10-10-10s-10,4.477-10,10v48.065H20V391.59
	c0-32.314,14.107-62.85,38.707-83.797c21.135,17.997,34.515,43.073,37.868,70.273c0.107,0.868,0.204,1.738,0.291,2.61
	c0.029,0.287,0.056,0.574,0.082,0.861c0.076,0.825,0.14,1.652,0.197,2.48c0.021,0.301,0.043,0.602,0.062,0.903
	c0.051,0.84,0.089,1.68,0.12,2.521c0.01,0.279,0.026,0.557,0.034,0.837c0.033,1.105,0.053,2.21,0.053,3.312
	C97.414,391.59,97.414,427.708,97.414,427.708z M140.043,450.171h-22.629v-12.463V391.59c0-1.582-0.039-3.158-0.096-4.732
	c-0.013-0.357-0.028-0.713-0.044-1.07c-0.07-1.575-0.159-3.146-0.285-4.711l23.054-16.743V450.171z M248.613,30.02L256,23.745
	l7.387,6.274c19.671,16.708,36.475,36.13,50.111,57.894H198.502C212.139,66.15,228.942,46.728,248.613,30.02z M217.293,491.375
	v-21.204H246v19.42c0,0.61,0.063,1.204,0.168,1.784H217.293z M294.707,491.375h-28.875c0.105-0.58,0.168-1.174,0.168-1.784v-19.42
	h28.707V491.375z M294.707,450.171H266v-70.528c0-5.523-4.478-10-10-10s-10,4.477-10,10v70.528h-28.707v-32.795
	c0-32.314,14.106-62.849,38.707-83.796c24.6,20.947,38.707,51.482,38.707,83.796V450.171z M351.957,344.712v105.459h-11.379V328.979
	c0-5.523-4.478-10-10-10s-10,4.477-10,10v121.192h-5.871v-32.795c0-38.24-16.716-74.371-45.861-99.127l-6.371-5.412
	c-3.734-3.171-9.215-3.171-12.949,0l-6.37,5.412c-29.146,24.756-45.862,60.887-45.862,99.127v32.795h-5.871V328.979
	c0-5.523-4.478-10-10-10s-10,4.477-10,10v121.192h-11.379V344.712V221.461c0-18.873,2.156-37.814,6.408-56.299
	c4.563-19.83,11.534-39.061,20.749-57.248h137.6c9.215,18.188,16.187,37.418,20.749,57.248c4.252,18.485,6.408,37.427,6.408,56.299
	v123.251H351.957z M414.586,391.59c0-1.103,0.02-2.208,0.053-3.314c0.008-0.276,0.024-0.551,0.034-0.827
	c0.032-0.843,0.07-1.687,0.121-2.53c0.018-0.3,0.041-0.6,0.062-0.9c0.057-0.83,0.122-1.66,0.198-2.488
	c0.026-0.283,0.053-0.566,0.081-0.849c0.087-0.876,0.184-1.751,0.292-2.622c3.354-27.198,16.733-52.272,37.867-70.268
	C477.893,328.74,492,359.276,492,391.59v36.119h-28.707v-48.065c0-5.523-4.478-10-10-10s-10,4.477-10,10v48.065h-28.707V391.59z
	 M371.957,450.171v-85.837l23.054,16.743c-0.126,1.565-0.215,3.137-0.285,4.711c-0.016,0.357-0.031,0.712-0.044,1.069
	c-0.057,1.574-0.096,3.151-0.096,4.732v46.119v12.463H371.957z M414.586,465.588v-5.417v-12.463h28.707v17.88H414.586z M492,465.588
	h-28.707v-17.88H492V465.588z"/>
<g>
</g>
<g>
</g>
<g>
</g>
<g>
</g>
<g>
</g>
<g>
</g>
<g>
</g>
<g>
</g>
<g>
</g>
<g>
</g>
<g>
</g>
<g>
</g>
<g>
</g>
<g>
</g>
<g>
</g>
</svg>
