<?xml version="1.0" encoding="iso-8859-1"?>
<!-- Generator: Adobe Illustrator 19.0.0, SVG Export Plug-In . SVG Version: 6.00 Build 0)  -->
<svg version="1.1" id="Capa_1" xmlns="http://www.w3.org/2000/svg" xmlns:xlink="http://www.w3.org/1999/xlink" x="0px" y="0px"
	 viewBox="0 0 512 512" style="enable-background:new 0 0 512 512;" xml:space="preserve">
<path style="fill:#2DA0A4;" d="M321.006,407.782v-92.965c0-18.284,14.822-33.105,33.105-33.105h0.735V206.23
	c0-14.677-1.322-29.188-3.885-43.385c-1.888-10.459-4.467-20.742-7.674-30.797H168.713c-3.207,10.056-5.786,20.338-7.674,30.797
	c-2.563,14.196-3.885,28.708-3.885,43.385v75.482h1.387c18.284,0,33.105,14.822,33.105,33.105v92.965H321.006z"/>
<path style="fill:#098287;" d="M256,10L256,10L256,10c-41.693,30.884-71.899,73.798-87.288,122.048h174.575
	C327.899,83.798,297.693,40.884,256,10z"/>
<circle style="fill:#DBDBDB;" cx="256" cy="250.25" r="51.25"/>
<path d="M256,311.501c-33.775,0-61.253-27.478-61.253-61.253s27.478-61.254,61.253-61.254s61.253,27.479,61.253,61.254
	S289.775,311.501,256,311.501z M256,208.994c-22.747,0-41.253,18.506-41.253,41.254c0,22.747,18.506,41.253,41.253,41.253
	s41.253-18.506,41.253-41.253C297.253,227.5,278.747,208.994,256,208.994z"/>
<path style="fill:#FFC48C;" d="M321.007,441.621c0-18.689,15.15-33.839,33.839-33.839s33.839,15.15,33.839,33.839
	S354.846,502,354.846,502S321.007,460.31,321.007,441.621z"/>
<path style="fill:#DBDBDB;" d="M355.582,281.712h-1.471c-18.284,0-33.105,14.822-33.105,33.105v125.944l0.015-0.008
	c0.457-18.29,15.425-32.972,33.825-32.972c18.401,0,33.36,14.689,33.817,32.98h0.023V314.817
	C388.687,296.534,373.865,281.712,355.582,281.712z"/>
<path style="fill:#B3BBC2;" d="M123.965,314.817c0-18.284,14.822-33.105,33.105-33.105h0.083v-54.173L59.69,318.532v89.189h64.275
	V314.817z"/>
<polygon style="fill:#858A8F;" points="59.69,341.704 12.76,375.788 12.76,407.782 59.69,407.721 "/>
<path style="fill:#B3BBC2;" d="M354.846,227.539L354.846,227.539v54.173h0.735c18.284,0,33.105,14.822,33.105,33.105v92.904h63.623
	v-89.189L354.846,227.539z"/>
<polygon style="fill:#858A8F;" points="452.31,341.704 452.31,407.721 499.24,407.782 499.24,375.788 "/>
<path style="fill:#FFC48C;" d="M123.967,441.621c0-18.689,15.15-33.839,33.839-33.839s33.839,15.15,33.839,33.839
	S157.806,502,157.806,502S123.967,460.31,123.967,441.621z"/>
<path style="fill:#DBDBDB;" d="M158.541,281.712h-1.471c-18.284,0-33.105,14.822-33.105,33.105v125.944h0.023
	c0.457-18.29,15.417-32.98,33.817-32.98c18.401,0,33.36,14.689,33.817,32.98h0.023V314.817
	C191.646,296.534,176.825,281.712,158.541,281.712z"/>
<path d="M315.95,180.83c-2.63,0-5.21-1.06-7.07-2.92c-0.46-0.47-0.88-0.98-1.24-1.52c-0.36-0.55-0.67-1.13-0.92-1.73
	c-0.25-0.6-0.44-1.23-0.57-1.87c-0.13-0.65-0.19-1.3-0.19-1.96c0-0.65,0.06-1.3,0.19-1.95c0.13-0.64,0.32-1.27,0.57-1.87
	s0.56-1.18,0.92-1.73c0.36-0.54,0.78-1.06,1.24-1.52s0.97-0.88,1.52-1.24c0.54-0.36,1.13-0.67,1.73-0.92s1.23-0.44,1.87-0.57
	c1.29-0.26,2.62-0.26,3.91,0c0.64,0.13,1.27,0.32,1.87,0.57s1.18,0.56,1.72,0.92c0.55,0.36,1.06,0.78,1.52,1.24
	c0.47,0.46,0.88,0.98,1.25,1.52c0.36,0.55,0.67,1.13,0.92,1.73s0.44,1.23,0.57,1.87c0.13,0.65,0.19,1.3,0.19,1.95
	c0,0.66-0.06,1.31-0.19,1.96c-0.13,0.64-0.32,1.27-0.57,1.87c-0.25,0.6-0.56,1.18-0.92,1.73c-0.37,0.54-0.78,1.05-1.25,1.52
	c-0.46,0.46-0.97,0.87-1.52,1.24c-0.54,0.36-1.12,0.67-1.72,0.92c-0.61,0.25-1.23,0.44-1.87,0.57
	C317.26,180.77,316.61,180.83,315.95,180.83z"/>
<path d="M354.85,329.56c-2.64,0-5.21-1.07-7.07-2.93c-1.87-1.86-2.93-4.44-2.93-7.07c0-0.65,0.06-1.31,0.19-1.95
	s0.32-1.27,0.57-1.87c0.25-0.61,0.56-1.19,0.92-1.73c0.37-0.55,0.78-1.06,1.25-1.52c2.32-2.32,5.77-3.39,9.02-2.73
	c0.64,0.12,1.27,0.32,1.87,0.57s1.19,0.56,1.73,0.92c0.55,0.36,1.06,0.78,1.52,1.24s0.88,0.97,1.24,1.52
	c0.36,0.54,0.67,1.12,0.92,1.73c0.25,0.6,0.44,1.23,0.57,1.87s0.2,1.3,0.2,1.95c0,2.63-1.07,5.21-2.93,7.07
	c-0.46,0.46-0.97,0.88-1.52,1.24c-0.54,0.36-1.13,0.67-1.73,0.92s-1.23,0.44-1.87,0.57S355.5,329.56,354.85,329.56z"/>
<path d="M157.15,329.56c-0.65,0-1.3-0.07-1.95-0.2c-0.64-0.13-1.27-0.32-1.87-0.57c-0.6-0.25-1.18-0.56-1.73-0.92
	c-0.54-0.36-1.06-0.78-1.52-1.24c-1.86-1.86-2.93-4.44-2.93-7.07s1.07-5.21,2.93-7.07c0.46-0.46,0.98-0.88,1.52-1.24
	c0.55-0.36,1.13-0.67,1.73-0.92c0.6-0.25,1.23-0.45,1.87-0.57c1.29-0.26,2.62-0.26,3.91,0c0.64,0.12,1.26,0.32,1.87,0.57
	c0.6,0.25,1.18,0.56,1.72,0.92c0.55,0.36,1.06,0.78,1.52,1.24c0.47,0.46,0.88,0.97,1.25,1.52c0.36,0.54,0.67,1.12,0.92,1.73
	c0.25,0.6,0.44,1.23,0.57,1.87s0.19,1.3,0.19,1.95c0,2.63-1.06,5.21-2.93,7.07c-0.46,0.46-0.97,0.88-1.52,1.24
	c-0.54,0.36-1.12,0.67-1.72,0.92c-0.61,0.25-1.23,0.44-1.87,0.57C158.46,329.49,157.81,329.56,157.15,329.56z"/>
<path d="M505.117,367.697l-42.807-31.089v-18.075c0-2.771-1.15-5.418-3.176-7.31l-94.288-88.029V206.23
	c0-15.101-1.36-30.295-4.044-45.161c-1.936-10.725-4.624-21.512-7.987-32.06c-16.32-51.171-47.739-95.103-90.863-127.045
	c-3.536-2.619-8.368-2.619-11.904,0c-43.124,31.943-74.543,75.875-90.863,127.045c-3.364,10.548-6.051,21.334-7.987,32.06
	c-2.684,14.865-4.044,30.06-4.044,45.161v16.964l-94.288,88.029c-2.026,1.891-3.176,4.538-3.176,7.31v18.075L6.883,367.697
	c-2.59,1.881-4.124,4.89-4.124,8.091v31.994c0,2.654,1.055,5.2,2.934,7.076c1.875,1.873,4.417,2.924,7.066,2.924
	c0.004,0,0.009,0,0.013,0l46.93-0.061h54.263v23.041c0,0.103,0.012,0.203,0.016,0.305c-0.002,0.185-0.014,0.368-0.014,0.553
	c0,21.165,30.051,59.26,36.075,66.682c1.899,2.339,4.751,3.698,7.764,3.698s5.865-1.358,7.764-3.698
	c6.024-7.422,36.075-45.517,36.075-66.682c0-0.183-0.012-0.363-0.014-0.546c0.003-0.105,0.016-0.207,0.016-0.313v-22.98h109.359
	v22.98c0,0.086,0.015,0.169,0.017,0.255c-0.003,0.202-0.015,0.402-0.015,0.604c0,21.165,30.051,59.26,36.075,66.682
	c1.899,2.339,4.751,3.698,7.764,3.698s5.865-1.358,7.764-3.698c6.024-7.422,36.075-45.517,36.075-66.682
	c0-0.183-0.012-0.363-0.014-0.546c0.003-0.105,0.016-0.207,0.016-0.313V417.72h53.61l46.93,0.061c0.004,0,0.008,0,0.013,0
	c2.65,0,5.191-1.052,7.066-2.924c1.878-1.876,2.934-4.421,2.934-7.076v-31.994C509.24,372.586,507.707,369.578,505.117,367.697z
	 M378.687,404.821c-4.244-2.761-8.919-4.745-13.841-5.89v-42.673c0-5.523-4.477-10-10-10s-10,4.477-10,10v42.672
	c-4.921,1.145-9.596,3.127-13.84,5.886v-89.999c0-12.74,10.365-23.105,23.105-23.105h0.735h0.735
	c12.74,0,23.105,10.365,23.105,23.105v90.004H378.687z M256,22.591c33.062,26.136,58.112,60.205,73.184,99.458H182.816
	C197.888,82.796,222.938,48.728,256,22.591z M181.646,404.821c-4.431-2.883-9.331-4.923-14.493-6.041v-42.521
	c0-5.523-4.477-10-10-10s-10,4.477-10,10v42.828c-4.683,1.166-9.132,3.096-13.188,5.734v-90.003c0-0.796,0.04-1.583,0.12-2.359
	c1.186-11.636,11.047-20.746,23.069-20.746h1.387c12.74,0,23.105,10.365,23.105,23.105L181.646,404.821L181.646,404.821z
	 M22.76,380.884l26.93-19.559v36.408l-26.93,0.035C22.76,397.768,22.76,380.884,22.76,380.884z M69.69,397.721v-56.017v-18.827
	l77.464-72.321v22.307c-0.163,0.039-0.323,0.085-0.485,0.126c-0.25,0.062-0.498,0.127-0.746,0.193
	c-0.404,0.108-0.805,0.223-1.205,0.343c-0.242,0.072-0.483,0.144-0.723,0.221c-0.419,0.134-0.834,0.277-1.248,0.423
	c-0.209,0.074-0.42,0.144-0.628,0.221c-0.547,0.203-1.088,0.417-1.624,0.641c-0.068,0.028-0.138,0.053-0.205,0.082
	c-0.6,0.255-1.193,0.525-1.779,0.805c-0.188,0.09-0.372,0.187-0.559,0.28c-0.398,0.198-0.794,0.398-1.185,0.608
	c-0.221,0.118-0.439,0.242-0.657,0.364c-0.351,0.196-0.7,0.396-1.045,0.602c-0.225,0.134-0.448,0.271-0.671,0.409
	c-0.337,0.21-0.671,0.424-1.002,0.643c-0.214,0.141-0.428,0.282-0.639,0.427c-0.347,0.238-0.687,0.483-1.027,0.731
	c-0.184,0.135-0.371,0.266-0.553,0.403c-0.446,0.337-0.885,0.683-1.318,1.036c-0.067,0.055-0.137,0.107-0.204,0.162
	c-0.492,0.407-0.974,0.827-1.448,1.255c-0.163,0.147-0.32,0.3-0.48,0.449c-0.312,0.29-0.622,0.583-0.925,0.882
	c-0.183,0.18-0.361,0.365-0.541,0.549c-0.274,0.28-0.545,0.563-0.811,0.851c-0.18,0.195-0.358,0.391-0.535,0.589
	c-0.26,0.292-0.516,0.588-0.768,0.886c-0.167,0.198-0.334,0.395-0.498,0.595c-0.263,0.323-0.519,0.653-0.773,0.983
	c-0.14,0.183-0.284,0.362-0.421,0.547c-0.342,0.461-0.675,0.929-0.999,1.403c-0.04,0.059-0.084,0.116-0.124,0.175
	c-0.359,0.531-0.704,1.072-1.039,1.62c-0.115,0.187-0.223,0.379-0.335,0.568c-0.219,0.371-0.436,0.742-0.645,1.12
	c-0.123,0.223-0.241,0.448-0.36,0.673c-0.188,0.354-0.371,0.711-0.549,1.071c-0.116,0.235-0.23,0.472-0.342,0.71
	c-0.171,0.364-0.336,0.731-0.498,1.1c-0.103,0.234-0.206,0.468-0.304,0.705c-0.167,0.4-0.324,0.805-0.478,1.211
	c-0.08,0.209-0.163,0.415-0.239,0.626c-0.211,0.582-0.411,1.169-0.597,1.762c-0.011,0.037-0.025,0.072-0.036,0.109
	c-0.196,0.628-0.375,1.264-0.542,1.904c-0.055,0.209-0.101,0.421-0.153,0.631c-0.107,0.438-0.211,0.876-0.305,1.319
	c-0.053,0.25-0.1,0.501-0.149,0.752c-0.08,0.413-0.155,0.826-0.223,1.243c-0.043,0.262-0.083,0.524-0.12,0.787
	c-0.06,0.419-0.113,0.841-0.161,1.264c-0.029,0.257-0.06,0.513-0.084,0.772c-0.044,0.46-0.077,0.923-0.106,1.388
	c-0.014,0.222-0.033,0.442-0.043,0.664c-0.033,0.687-0.053,1.377-0.053,2.072v82.904H69.69V397.721z M157.803,485.602
	c-11.472-15.637-23.836-35.617-23.836-43.981c0-0.183,0.01-0.364,0.014-0.546c0.001-0.021,0.004-0.042,0.005-0.063
	c0.02-0.803,0.079-1.595,0.175-2.375c0.003-0.025,0.006-0.051,0.01-0.076c0.04-0.321,0.089-0.639,0.142-0.956
	c0.025-0.148,0.051-0.297,0.079-0.444c0.034-0.183,0.071-0.365,0.109-0.547c0.066-0.307,0.134-0.613,0.212-0.916
	c0.004-0.014,0.007-0.028,0.011-0.042c2.655-10.267,11.997-17.873,23.083-17.873s20.428,7.606,23.083,17.873
	c0.004,0.014,0.007,0.028,0.011,0.042c0.078,0.303,0.146,0.609,0.212,0.916c0.038,0.182,0.075,0.364,0.109,0.547
	c0.028,0.147,0.054,0.296,0.079,0.444c0.053,0.317,0.102,0.635,0.142,0.956c0.003,0.025,0.006,0.051,0.01,0.076
	c0.095,0.78,0.155,1.572,0.175,2.375c0.001,0.021,0.004,0.042,0.005,0.063c0.004,0.182,0.014,0.363,0.014,0.546
	C181.645,449.969,169.276,469.956,157.803,485.602z M201.646,397.782v-82.964c0-0.701-0.02-1.397-0.053-2.089
	c-0.011-0.227-0.031-0.451-0.045-0.677c-0.03-0.465-0.062-0.928-0.106-1.389c-0.026-0.266-0.058-0.53-0.089-0.794
	c-0.048-0.418-0.099-0.835-0.159-1.249c-0.04-0.275-0.084-0.549-0.129-0.823c-0.066-0.403-0.138-0.803-0.215-1.202
	c-0.053-0.271-0.106-0.542-0.164-0.811c-0.086-0.403-0.181-0.803-0.278-1.201c-0.063-0.257-0.123-0.514-0.191-0.769
	c-0.112-0.425-0.235-0.845-0.36-1.265c-0.066-0.221-0.127-0.444-0.196-0.663c-0.18-0.572-0.373-1.139-0.577-1.701
	c-0.022-0.062-0.041-0.125-0.064-0.186c-0.227-0.617-0.469-1.227-0.723-1.831c-0.088-0.21-0.184-0.415-0.276-0.624
	c-0.174-0.396-0.349-0.791-0.534-1.18c-0.114-0.239-0.234-0.475-0.352-0.711c-0.176-0.353-0.354-0.704-0.539-1.051
	c-0.13-0.244-0.264-0.486-0.399-0.727c-0.186-0.334-0.377-0.665-0.572-0.993c-0.143-0.24-0.286-0.479-0.434-0.717
	c-0.203-0.327-0.411-0.649-0.622-0.97c-0.149-0.227-0.297-0.454-0.45-0.677c-0.23-0.336-0.469-0.666-0.708-0.995
	c-0.145-0.199-0.285-0.4-0.433-0.597c-0.317-0.421-0.645-0.834-0.977-1.243c-0.078-0.096-0.151-0.195-0.23-0.291
	c-0.408-0.494-0.828-0.976-1.257-1.451c-0.159-0.176-0.325-0.346-0.487-0.519c-0.282-0.302-0.564-0.603-0.855-0.896
	c-0.191-0.193-0.388-0.381-0.582-0.571c-0.272-0.265-0.545-0.528-0.824-0.786c-0.207-0.192-0.418-0.38-0.629-0.567
	c-0.278-0.247-0.56-0.491-0.844-0.732c-0.216-0.182-0.433-0.363-0.653-0.542c-0.293-0.238-0.59-0.47-0.89-0.7
	c-0.219-0.168-0.437-0.337-0.659-0.501c-0.323-0.238-0.652-0.469-0.981-0.698c-0.206-0.143-0.408-0.29-0.617-0.43
	c-0.424-0.284-0.856-0.558-1.29-0.828c-0.12-0.075-0.238-0.155-0.359-0.228c-0.551-0.335-1.112-0.656-1.679-0.966
	c-0.195-0.107-0.395-0.206-0.592-0.31c-0.384-0.202-0.768-0.403-1.159-0.594c-0.236-0.116-0.476-0.224-0.715-0.336
	c-0.36-0.168-0.72-0.333-1.085-0.491c-0.253-0.11-0.508-0.215-0.764-0.32c-0.361-0.148-0.723-0.292-1.089-0.43
	c-0.259-0.098-0.518-0.194-0.779-0.288c-0.376-0.134-0.755-0.261-1.136-0.385c-0.254-0.083-0.507-0.166-0.762-0.244
	c-0.413-0.126-0.831-0.242-1.249-0.355c-0.228-0.062-0.453-0.128-0.683-0.186c-0.547-0.139-1.099-0.265-1.654-0.383
	c-0.104-0.022-0.206-0.049-0.31-0.07c-0.012-0.002-0.023-0.006-0.035-0.008v-45.038V206.23c0-8.463,0.47-16.956,1.39-25.395h110.711
	c5.523,0,10-4.477,10-10s-4.477-10-10-10H171.613c1.243-6.275,2.746-12.56,4.523-18.787h159.728
	c2.135,7.479,3.897,15.045,5.257,22.574c2.472,13.696,3.726,27.695,3.726,41.608v21.309v45.176
	c-0.327,0.072-0.649,0.157-0.973,0.236c-0.221,0.054-0.443,0.103-0.663,0.161c-0.579,0.152-1.153,0.316-1.723,0.49
	c-0.065,0.02-0.131,0.036-0.196,0.056c-0.63,0.197-1.253,0.41-1.871,0.634c-0.204,0.074-0.405,0.156-0.607,0.233
	c-0.414,0.158-0.826,0.317-1.234,0.487c-0.239,0.099-0.474,0.205-0.71,0.308c-0.367,0.161-0.733,0.325-1.095,0.496
	c-0.243,0.115-0.485,0.233-0.726,0.352c-0.352,0.174-0.701,0.354-1.047,0.537c-0.236,0.125-0.472,0.25-0.705,0.38
	c-0.353,0.196-0.701,0.398-1.048,0.603c-0.216,0.128-0.433,0.253-0.646,0.384c-0.392,0.241-0.778,0.492-1.161,0.745
	c-0.159,0.105-0.321,0.205-0.479,0.312c-0.532,0.361-1.057,0.734-1.572,1.118c-0.138,0.103-0.27,0.211-0.406,0.316
	c-0.378,0.289-0.755,0.582-1.123,0.883c-0.193,0.158-0.38,0.321-0.57,0.482c-0.306,0.259-0.61,0.52-0.908,0.787
	c-0.199,0.179-0.395,0.361-0.591,0.543c-0.282,0.262-0.56,0.527-0.835,0.796c-0.194,0.19-0.385,0.381-0.575,0.574
	c-0.272,0.277-0.538,0.558-0.803,0.842c-0.179,0.193-0.36,0.384-0.536,0.58c-0.278,0.309-0.547,0.625-0.816,0.942
	c-0.151,0.178-0.305,0.353-0.453,0.533c-0.365,0.445-0.72,0.898-1.067,1.357c-0.05,0.066-0.102,0.13-0.152,0.196
	c-0.378,0.506-0.744,1.022-1.099,1.545c-0.126,0.186-0.246,0.376-0.369,0.564c-0.234,0.356-0.467,0.714-0.691,1.077
	c-0.136,0.221-0.267,0.445-0.399,0.668c-0.201,0.34-0.4,0.682-0.592,1.028c-0.131,0.236-0.258,0.473-0.385,0.711
	c-0.184,0.346-0.362,0.695-0.537,1.047c-0.118,0.239-0.236,0.477-0.351,0.718c-0.175,0.37-0.342,0.744-0.507,1.12
	c-0.1,0.228-0.203,0.454-0.299,0.683c-0.185,0.441-0.358,0.888-0.528,1.337c-0.064,0.168-0.133,0.333-0.194,0.502
	c-0.225,0.617-0.437,1.24-0.634,1.87c-0.05,0.159-0.092,0.322-0.141,0.482c-0.143,0.476-0.282,0.954-0.409,1.437
	c-0.062,0.236-0.117,0.475-0.175,0.713c-0.101,0.414-0.199,0.828-0.288,1.247c-0.056,0.261-0.106,0.523-0.157,0.785
	c-0.078,0.404-0.151,0.81-0.218,1.218c-0.044,0.269-0.086,0.537-0.125,0.808c-0.06,0.416-0.112,0.834-0.16,1.254
	c-0.03,0.261-0.061,0.521-0.086,0.784c-0.044,0.46-0.076,0.923-0.106,1.387c-0.014,0.224-0.034,0.447-0.044,0.672
	c-0.033,0.69-0.053,1.382-0.053,2.08v82.964H201.646V397.782z M354.844,485.602c-11.472-15.637-23.836-35.617-23.836-43.981
	c0-0.275,0.012-0.548,0.021-0.821c0.009-0.257,0.022-0.513,0.038-0.768c0.012-0.176,0.025-0.352,0.04-0.527
	c0.016-0.19,0.036-0.379,0.056-0.568c0.03-0.268,0.063-0.535,0.102-0.801c0.011-0.08,0.023-0.16,0.036-0.239
	c1.793-11.382,11.668-20.115,23.546-20.115c11.086,0,20.428,7.606,23.083,17.873c0.004,0.014,0.007,0.028,0.011,0.042
	c0.078,0.303,0.146,0.609,0.212,0.916c0.038,0.182,0.075,0.364,0.109,0.547c0.028,0.147,0.054,0.296,0.079,0.444
	c0.053,0.317,0.102,0.635,0.142,0.956c0.003,0.025,0.006,0.051,0.01,0.076c0.095,0.78,0.155,1.572,0.175,2.375
	c0.001,0.021,0.004,0.042,0.005,0.063c0.004,0.182,0.014,0.363,0.014,0.546C378.685,449.969,366.317,469.956,354.844,485.602z
	 M398.687,314.817c0-0.698-0.02-1.39-0.053-2.08c-0.011-0.225-0.03-0.448-0.044-0.672c-0.029-0.464-0.062-0.927-0.106-1.387
	c-0.025-0.262-0.057-0.523-0.086-0.784c-0.048-0.42-0.1-0.838-0.16-1.254c-0.039-0.27-0.081-0.539-0.125-0.808
	c-0.067-0.408-0.14-0.814-0.218-1.218c-0.051-0.262-0.101-0.525-0.157-0.785c-0.089-0.418-0.187-0.832-0.288-1.245
	c-0.058-0.239-0.113-0.479-0.176-0.716c-0.126-0.48-0.264-0.954-0.406-1.427c-0.049-0.164-0.093-0.33-0.144-0.492
	c-0.197-0.629-0.408-1.251-0.633-1.867c-0.063-0.172-0.133-0.34-0.198-0.511c-0.169-0.445-0.341-0.889-0.524-1.327
	c-0.097-0.232-0.201-0.461-0.302-0.691c-0.164-0.372-0.329-0.744-0.503-1.111c-0.115-0.244-0.235-0.485-0.354-0.726
	c-0.173-0.349-0.351-0.696-0.533-1.04c-0.128-0.24-0.257-0.48-0.389-0.717c-0.19-0.342-0.386-0.681-0.585-1.017
	c-0.134-0.227-0.267-0.455-0.406-0.68c-0.221-0.359-0.451-0.711-0.682-1.063c-0.126-0.192-0.248-0.387-0.378-0.577
	c-0.346-0.508-0.702-1.009-1.069-1.502c-0.068-0.091-0.138-0.18-0.206-0.27c-0.339-0.447-0.684-0.888-1.039-1.322
	c-0.152-0.185-0.31-0.364-0.464-0.546c-0.265-0.312-0.53-0.623-0.804-0.928c-0.179-0.2-0.363-0.395-0.546-0.591
	c-0.26-0.28-0.523-0.557-0.791-0.83c-0.193-0.197-0.389-0.391-0.586-0.584c-0.271-0.265-0.545-0.526-0.823-0.784
	c-0.2-0.186-0.4-0.372-0.603-0.554c-0.294-0.263-0.593-0.52-0.894-0.775c-0.194-0.164-0.385-0.331-0.582-0.492
	c-0.359-0.294-0.726-0.578-1.095-0.861c-0.146-0.112-0.288-0.229-0.436-0.339c-0.513-0.383-1.035-0.753-1.565-1.113
	c-0.164-0.112-0.334-0.216-0.5-0.326c-0.377-0.248-0.755-0.495-1.14-0.732c-0.218-0.134-0.439-0.261-0.66-0.392
	c-0.343-0.202-0.687-0.403-1.035-0.596c-0.236-0.131-0.475-0.258-0.714-0.384c-0.343-0.182-0.689-0.359-1.038-0.532
	c-0.244-0.121-0.488-0.24-0.735-0.357c-0.359-0.169-0.721-0.332-1.086-0.492c-0.239-0.105-0.477-0.211-0.718-0.312
	c-0.404-0.169-0.813-0.327-1.224-0.483c-0.206-0.078-0.41-0.162-0.617-0.237c-0.617-0.224-1.239-0.437-1.868-0.633
	c-0.069-0.022-0.14-0.039-0.209-0.06c-0.565-0.173-1.135-0.336-1.71-0.487c-0.221-0.058-0.446-0.108-0.668-0.162
	c-0.323-0.079-0.644-0.164-0.97-0.235v-22.159l77.464,72.321V341.7v56.017h-43.623v-82.9H398.687z M489.24,397.769l-26.93-0.035
	v-36.408l26.93,19.559V397.769z"/>
<g>
</g>
<g>
</g>
<g>
</g>
<g>
</g>
<g>
</g>
<g>
</g>
<g>
</g>
<g>
</g>
<g>
</g>
<g>
</g>
<g>
</g>
<g>
</g>
<g>
</g>
<g>
</g>
<g>
</g>
</svg>
